# AST/ASF file generated using VICON BodyLanguage
# -----------------------------------------------
:version 1.10
:name VICON
:units
  mass 1.0
  length 0.45
  angle deg
:documentation
   .ast/.asf automatically generated from VICON data using
   VICON BodyBuilder and BodyLanguage model FoxedUp or BRILLIANT.MOD
:root
   order TX TY TZ RX RY RZ
   axis XYZ
   position 0 0 0  
   orientation 0 0 0 
:bonedata
  begin
     id 1 
     name lhipjoint
     direction 0.62366 -0.717238 0.310833 
     length 2.53602 
     axis 0 0 0  XYZ
  end
  begin
     id 2 
     name lfemur
     direction 0.34202 -0.939693 0  
     length 7.40817  
     axis 0 0 20  XYZ
    dof rx ry rz
    limits (-160.0 20.0)
           (-70.0 70.0)
           (-60.0 70.0)
  end
  begin
     id 3 
     name ltibia
     direction 0.34202 -0.939693 0   
     length 7.7045   
     axis 0 0 20   XYZ
    dof rx
    limits (-10.0 170.0)
  end
  begin
     id 4 
     name lfoot
     direction 0.0673888 -0.185149 0.980397   
     length 2.09456   
     axis -90 7.62852e-016 20   XYZ
    dof rx rz
    limits (-45.0 90.0)
           (-70.0 20.0)
  end
  begin
     id 5 
     name ltoes
     direction 1.53575e-011 -4.21994e-011 1   
     length 1.05543   
     axis -90 7.62852e-016 20   XYZ
    dof rx
    limits (-90.0 20.0)
  end
  begin
     id 6 
     name rhipjoint
     direction -0.489018 -0.800347 0.346851   
     length 2.27268  
     axis 0 0 0  XYZ 
  end
  begin
     id 7 
     name rfemur
     direction -0.34202 -0.939693 0   
     length 7.55487   
     axis 0 0 -20   XYZ
    dof rx ry rz
    limits (-160.0 20.0)
           (-70.0 70.0)
           (-70.0 60.0)
  end
  begin
     id 8 
     name rtibia
     direction -0.34202 -0.939693 0   
     length 7.78969   
     axis 0 0 -20   XYZ
    dof rx
    limits (-10.0 170.0)
 end
 begin
     id 9 
     name rfoot
     direction -0.0859318 -0.236096 0.967923   
     length 2.19143  
     axis -90 -7.62852e-016 -20   XYZ
    dof rx rz
    limits (-45.0 90.0)
           (-20.0 70.0)
  end
  begin
     id 10 
     name rtoes
     direction -1.53538e-011 -4.21989e-011 1   
     length 1.09845   
     axis -90 -7.62852e-016 -20   XYZ
    dof rx
    limits (-90.0 20.0)
  end
  begin
     id 11 
     name lowerback
     direction -0.00762546 0.998978 -0.0445553   
     length 1.98161   
     axis 0 0 0   XYZ
    dof rx ry rz
    limits (-20.0 45.0)
           (-30.0 30.0)
           (-30.0 30.0)
  end
  begin
     id 12 
     name upperback
     direction 0.0422361 0.998867 -0.0219156   
     length 1.97558   
     axis 0 0 0   XYZ
    dof rx ry rz
    limits (-20.0 45.0)
           (-30.0 30.0)
           (-30.0 30.0)
  end
  begin
     id 13 
     name thorax
     direction 0.0442465 0.999021 7.47603e-005   
     length 1.97799   
     axis 0 0 0   XYZ
    dof rx ry rz
    limits (-20.0 45.0)
           (-30.0 30.0)
           (-30.0 30.0)
  end
  begin
     id 14 
     name lowerneck
     direction 0.00312169 0.984641 0.174564   
     length 1.78995   
     axis 0 0 0   XYZ
    dof rx ry rz
    limits (-20.0 45.0)
           (-30.0 30.0)
           (-30.0 30.0)
  end
  begin
     id 15 
     name upperneck
     direction -0.0383028 0.985255 -0.166749   
     length 1.83053   
     axis 0 0 0   XYZ
    dof rx ry rz
    limits (-20.0 45.0)
           (-30.0 30.0)
           (-30.0 30.0)
  end
  begin
     id 16
     name head
     direction -0.0129546 0.997059 -0.0755386  
     length 1.84088  
     axis 0 0 0   XYZ
    dof rx ry rz
    limits (-20.0 45.0)
           (-30.0 30.0)
           (-30.0 30.0)
  end
  begin
     id 17 
     name lclavicle
     direction 0.912857 0.370519 -0.171488  
     length 3.51279  
     axis 0 0 0   XYZ
    dof ry rz
    limits (-20.0 10.0)
           (0.0 20.0)
  end
  begin
     id 18 
     name lhumerus
     direction 1 -4.48962e-011 3.64361e-027   
     length 4.95663   
     axis 180 -30 -90   XYZ
    dof rx ry rz
    limits (-60.0 90.0)
           (-90.0 90.0)
           (-90.0 90.0)
  end
  begin
     id 19
     name lradius
     direction 1 -4.48974e-011 5.97202e-027   
     length 3.38177   
     axis 180 -30 -90   XYZ
    dof rx
    limits (-10.0 170.0)
  end
  begin
     id 20
     name lwrist
     direction 1 -4.4896e-011 9.83288e-027   
     length 1.69088   
     axis -9.31221e-015 90 90   XYZ
    dof ry
    limits (-180.0 0.0)
 end
  begin
     id 21 
     name lhand
     direction 1 -4.4902e-011 1.96551e-026   
     length 0.662909   
     axis -1.25475e-014 90 90   XYZ
    dof rx rz
    limits (-90.0 90.0)
           (-45.0 45.0)
  end
  begin
     id 22 
     name lfingers
     direction 1 -4.48971e-011 3.93277e-026   
     length 0.534454   
     axis -2.50945e-014 90 90   XYZ
    dof rx
    limits (0.0 90.0)
  end
  begin
     id 23
     name lthumb
     direction 0.707107 -6.34933e-011 0.707107   
     length 0.767373   
     axis -90 45 -4.80359e-014   XYZ
    dof rx rz
    limits (-45.0 45.0)
           (-45.0 45.0)
  end
  begin
     id 24 
     name rclavicle
     direction -0.900919 0.395364 -0.178976   
     length 3.40627  
     axis 0 0 0   XYZ 
    dof ry rz
    limits (-10.0 20.0)
           (-20.0 0.0)
  end
  begin
     id 25 
     name rhumerus
     direction -1 -4.48969e-011 1.03875e-027  
     length 5.08365   
     axis 180 30 90   XYZ
    dof rx ry rz
    limits (-90.0 60.0)
           (-90.0 90.0)
           (-90.0 90.0)
  end
  begin
     id 26 
     name rradius
     direction -1 -4.48951e-011 5.02733e-027   
     length 3.35984   
     axis 180 30 90   XYZ
    dof rx
    limits (-10.0 170.0)
  end
  begin
     id 27 
     name rwrist
     direction -1 -4.49011e-011 9.82828e-027   
     length 1.67992   
     axis -9.31221e-015 -90 -90   XYZ
    dof ry
    limits (-180.0 0.0)
  end
  begin
     id 28
     name rhand
     direction -1 -4.48894e-011 1.96774e-026   
     length 0.820764   
     axis -1.25475e-014 -90 -90   XYZ
    dof rx rz
    limits (-90.0 90.0)
           (-45.0 45.0)
  end
  begin
     id 29
     name rfingers
     direction -1 -4.49095e-011 3.92833e-026   
     length 0.661721   
     axis -2.50945e-014 -90 -90   XYZ
    dof rx
    limits (0.0 90.0)
  end
  begin
     id 30
     name rthumb
     direction -0.707107 -6.34881e-011 0.707107   
     length 0.950103   
     axis -90 -45 4.80359e-014   XYZ
    dof rx rz
    limits (-45.0 45.0)
           (-45.0 45.0)
  end
:hierarchy
  begin
    root lhipjoint rhipjoint lowerback
    lhipjoint lfemur
    lfemur ltibia
    ltibia lfoot
    lfoot ltoes
    rhipjoint rfemur
    rfemur rtibia
    rtibia rfoot
    rfoot rtoes
    lowerback upperback
    upperback thorax
    thorax lowerneck lclavicle rclavicle
    lowerneck upperneck
    upperneck head
    lclavicle lhumerus
    lhumerus lradius
    lradius lwrist
    lwrist lhand lthumb
    lhand lfingers
    rclavicle rhumerus
    rhumerus rradius
    rradius rwrist
    rwrist rhand rthumb
    rhand rfingers
  end

#!OML:ASF I:\golf\golf\golf 2\Subject 1\2002-09-07\Subject1.ASF
:FULLY-SPECIFIED
:DEGREES
1
root -5.82914 17.8741 1.78981 -78.4182 86.296 -96.1138
lowerback 4.63582 1.57939 -1.4274
upperback 3.12177 2.18521 4.71147
thorax 0.382976 1.09183 5.58562
lowerneck -17.1013 -1.80218 2.33745
upperneck 41.0205 0.947713 -5.86067
head 18.3012 0.515299 -2.80985
rclavicle 6.75868e-015 3.81667e-014
rhumerus -4.17579 -3.52373 -100.993
rradius 19.9659
rwrist -31.1458
rhand -12.7873 -5.2607
rfingers 7.12502
rthumb 13.2982 -34.8164
lclavicle 6.75868e-015 3.81667e-014
lhumerus -11.0588 -43.7265 111.408
lradius 28.081
lwrist 45.5912
lhand -14.6248 69.8143
lfingers 7.12502
lthumb -168.473 80.5226
rfemur -29.9513 0.27183 12.9419
rtibia 29.1269
rfoot -10.162 -10.4634
rtoes -5.38414
lfemur -31.3742 5.01646 -9.07132
ltibia 30.7413
lfoot -11.6737 0.450813
ltoes -22.3024
2
root -5.82902 17.8746 1.78832 -78.2542 86.2871 -95.911
lowerback 4.67829 1.57506 -1.41984
upperback 3.12593 2.18048 4.71622
thorax 0.364186 1.09 5.58538
lowerneck -17.0801 -1.79226 2.34631
upperneck 41.0168 0.968646 -5.87889
head 18.2951 0.522886 -2.81544
rclavicle -1.86858e-014 -1.51076e-014
rhumerus -4.23464 -3.44441 -101.016
rradius 20.0382
rwrist -31.1975
rhand -12.9672 -5.29333
rfingers 7.12502
rthumb 13.1248 -34.8603
lclavicle -1.86858e-014 -1.51076e-014
lhumerus -11.017 -43.5451 111.398
lradius 27.9397
lwrist 45.2644
lhand -14.5861 69.7966
lfingers 7.12502
lthumb -168.436 80.5424
rfemur -29.884 0.283109 12.9408
rtibia 29.0962
rfoot -10.1419 -10.4585
rtoes -5.82683
lfemur -31.3383 5.01288 -9.07392
ltibia 30.7639
lfoot -11.6722 0.521193
ltoes -22.7705
3
root -5.82899 17.874 1.78604 -77.9777 86.2872 -95.6326
lowerback 4.66597 1.57642 -1.41719
upperback 3.12071 2.18248 4.72326
thorax 0.365288 1.09106 5.59143
lowerneck -17.0406 -1.79244 2.34807
upperneck 41.0148 0.981596 -5.90361
head 18.2843 0.52605 -2.82397
rclavicle 1.47101e-014 -3.26007e-014
rhumerus -4.31307 -3.36657 -101.011
rradius 20.1212
rwrist -31.2835
rhand -13.0694 -5.39201
rfingers 7.12502
rthumb 13.0263 -34.9653
lclavicle 1.47101e-014 -3.26007e-014
lhumerus -11.0216 -43.4102 111.402
lradius 27.8589
lwrist 45.1581
lhand -14.5422 69.642
lfingers 7.12502
lthumb -168.394 80.6994
rfemur -29.8793 0.263371 12.9349
rtibia 29.0729
rfoot -10.1337 -10.4366
rtoes -5.98549
lfemur -31.2192 4.88353 -9.00008
ltibia 30.7581
lfoot -11.8766 0.533281
ltoes -22.3645
4
root -5.82938 17.874 1.78409 -78.7047 86.2937 -96.3624
lowerback 4.65796 1.58443 -1.3491
upperback 3.11282 2.19479 4.68886
thorax 0.363789 1.09815 5.5157
lowerneck -17.0149 -1.81448 2.37719
upperneck 41.0261 0.93928 -5.89926
head 18.2804 0.515969 -2.83516
rclavicle 1.55052e-014 4.45278e-014
rhumerus -4.29307 -3.68172 -101.067
rradius 20.0755
rwrist -31.0266
rhand -13.1684 -5.38906
rfingers 7.12502
rthumb 12.9309 -34.9684
lclavicle 1.55052e-014 4.45278e-014
lhumerus -11.0735 -43.4775 111.393
lradius 27.8267
lwrist 45.2134
lhand -14.4503 69.5419
lfingers 7.12502
lthumb -168.305 80.8045
rfemur -29.8543 0.257386 12.9278
rtibia 29.0314
rfoot -10.0727 -10.495
rtoes -5.83452
lfemur -31.1661 4.62864 -8.87591
ltibia 30.7547
lfoot -12.0281 0.441552
ltoes -20.9318
5
root -5.82933 17.876 1.78192 -79.631 86.2793 -97.292
lowerback 4.62869 1.59578 -1.23407
upperback 3.12503 2.21305 4.65316
thorax 0.395983 1.10822 5.41264
lowerneck -17.0017 -1.83506 2.39672
upperneck 41.0089 0.886425 -5.87173
head 18.2618 0.501604 -2.83477
rclavicle -9.14409e-015 -1.98785e-014
rhumerus -4.21436 -3.96729 -101.12
rradius 20.0226
rwrist -30.8771
rhand -13.2146 -5.35516
rfingers 7.12502
rthumb 12.8863 -34.9373
lclavicle -9.14409e-015 -1.98785e-014
lhumerus -11.0791 -43.5934 111.359
lradius 27.7825
lwrist 45.1921
lhand -14.2913 69.4253
lfingers 7.12502
lthumb -168.152 80.9299
rfemur -29.8226 0.21984 12.9657
rtibia 28.978
rfoot -11.7627 -9.43082
rtoes 23.455
lfemur -31.2142 4.51761 -8.82685
ltibia 30.7262
lfoot -11.9534 0.391955
ltoes -20.2171
